<?xml version="1.0" standalone="no"?>
<!DOCTYPE svg PUBLIC "-//W3C//DTD SVG 1.1//EN" "http://www.w3.org/Graphics/SVG/1.1/DTD/svg11.dtd" >
<svg xmlns="http://www.w3.org/2000/svg">
<metadata>
Created by FontForge 20120731 at Fri Sep 30 11:27:31 2016
 By admin
</metadata>
<defs>
<font id="iconfont" horiz-adv-x="1024" >
  <font-face 
    font-family="iconfont"
    font-weight="500"
    font-stretch="normal"
    units-per-em="1024"
    panose-1="2 0 6 3 0 0 0 0 0 0"
    ascent="896"
    descent="-128"
    x-height="792"
    bbox="0 -196 1055 896"
    underline-thickness="50"
    underline-position="-100"
    unicode-range="U+0078-E62A"
  />
<missing-glyph horiz-adv-x="374" 
d="M34 0v682h272v-682h-272zM68 34h204v614h-204v-614z" />
    <glyph glyph-name=".notdef" horiz-adv-x="374" 
d="M34 0v682h272v-682h-272zM68 34h204v614h-204v-614z" />
    <glyph glyph-name=".null" horiz-adv-x="0" 
 />
    <glyph glyph-name="nonmarkingreturn" horiz-adv-x="341" 
 />
    <glyph glyph-name="x" unicode="x" horiz-adv-x="1001" 
d="M281 543q-27 -1 -53 -1h-83q-18 0 -36.5 -6t-32.5 -18.5t-23 -32t-9 -45.5v-76h912v41q0 16 -0.5 30t-0.5 18q0 13 -5 29t-17 29.5t-31.5 22.5t-49.5 9h-133v-97h-438v97zM955 310v-52q0 -23 0.5 -52t0.5 -58t-10.5 -47.5t-26 -30t-33 -16t-31.5 -4.5q-14 -1 -29.5 -0.5
t-29.5 0.5h-32l-45 128h-439l-44 -128h-29h-34q-20 0 -45 1q-25 0 -41 9.5t-25.5 23t-13.5 29.5t-4 30v167h911zM163 247q-12 0 -21 -8.5t-9 -21.5t9 -21.5t21 -8.5q13 0 22 8.5t9 21.5t-9 21.5t-22 8.5zM316 123q-8 -26 -14 -48q-5 -19 -10.5 -37t-7.5 -25t-3 -15t1 -14.5
t9.5 -10.5t21.5 -4h37h67h81h80h64h36q23 0 34 12t2 38q-5 13 -9.5 30.5t-9.5 34.5q-5 19 -11 39h-368zM336 498v228q0 11 2.5 23t10 21.5t20.5 15.5t34 6h188q31 0 51.5 -14.5t20.5 -52.5v-227h-327z" />
    <glyph glyph-name="uniE600" unicode="&#xe600;" 
d="M746 240q-14 -19 -33 -37l220 -216l36 34zM824 473q0 -104 -49 -190.5t-133.5 -135t-185.5 -48.5q-105 2 -189.5 52.5t-131.5 135.5t-47 186q0 97 49.5 180.5t134.5 132.5t184 49t184.5 -49.5t134.5 -133t49 -179.5zM454 786q-131 0 -224 -93t-93 -226t93 -226.5
t224 -93.5q86 0 160 43t117.5 116.5t43.5 160.5t-43.5 160.5t-117.5 116t-160 42.5z" />
    <glyph glyph-name="uniE601" unicode="&#xe601;" 
d="M512 864q-199 0 -339.5 -140.5t-140.5 -339.5t140.5 -339.5t339.5 -140.5t339.5 140.5t140.5 339.5t-140.5 339.5t-339.5 140.5zM512 -32q-173 0 -294.5 121.5t-121.5 294.5t121.5 294.5t294.5 121.5t294.5 -121.5t121.5 -294.5t-121.5 -294.5t-294.5 -121.5zM650 371
q-37 21 -132 48q-61 17 -92 32q-42 23 -42 61q0 44 35 64q29 19 87 19q60 0 96 -25q32 -28 41 -80h58q-10 79 -58 118q-48 38 -134 38q-78 0 -128 -35q-55 -32 -55 -102q0 -63 58 -96q19 -10 115 -42q79 -22 106 -35q51 -31 51 -74q0 -40 -38 -64q-36 -22 -100 -22t-102 29
q-40 30 -45 96h-57q5 -93 64 -138q52 -38 140 -38t141 38q51 37 51 106q0 65 -60 102z" />
    <glyph glyph-name="uniE602" unicode="&#xe602;" 
d="M700 191h-153q-14 0 -24.5 10t-10.5 24.5t10.5 25t24.5 10.5h336l-78 78q-11 11 -11 26.5t11 26t26 10.5t26 -11l139 -138q18 -17 7 -41q0 -1 -1 -2t-1 -2q-4 -6 -5 -7q-11 -10 -25 -10h-1h-267h-3zM104 167l-15 -36v-183h370l64 -73h-505v256l12 36q22 74 82.5 123.5
t139.5 56.5q-76 34 -123 105t-47 157q0 119 84.5 203t204 84t204.5 -84t85 -203q0 -59 -30 -124t-82 -110t-107 -43v54q65 20 105.5 84t40.5 139q0 89 -63 152t-153 63t-153.5 -63t-63.5 -152q0 -75 41 -139t105 -84v-73q-5 -1 -13.5 -3t-33.5 -12.5t-48 -25t-51.5 -42.5
t-49.5 -63zM516 63v1l2 2q3 6 5 8q11 11 25 11h1h422q14 0 24.5 -10.5t10.5 -25t-10.5 -25t-24.5 -10.5h-336l79 -79q11 -11 11 -26t-11 -26t-26.5 -11t-26.5 11l-138 139q-18 18 -7 41z" />
    <glyph glyph-name="uniE603" unicode="&#xe603;" 
d="M481 271q-17 0 -37 21l-109 109q-6 5 -6 13.5t5.5 13.5t14 5t13.5 -5l109 -109q7 -7 10.5 -7t6.5 7q3 3 106.5 108t108.5 111q5 5 13.5 5t14 -5.5t5.5 -14t-6 -13.5q-31 -31 -83 -84t-91.5 -93t-40.5 -41q-15 -21 -34 -21zM515 -67q-61 0 -133 41l-3 4q-53 31 -98.5 68
t-72.5 67.5t-48 61t-29 45.5t-12 24q-17 40 -17 116v355v21h31q41 0 83.5 6.5t78 17.5t68.5 24.5t57.5 26.5t43 24.5t28.5 18.5t10 8l13 10l14 -10q51 -41 109.5 -68.5t110.5 -39t84 -15t58 -3.5h17h20v-21v-369q0 -68 -30 -129q-46 -88 -144 -164q-6 -7 -10 -7
q-49 -42 -102.5 -69.5t-82.5 -35.5t-44 -8zM143 691v-334q-3 -58 17 -99q75 -149 243 -246q68 -34 116 -38q8 0 30 5.5t74 30t101 63.5q1 2 4.5 4t5.5 3q90 68 133 150q8 17 17.5 49.5t9.5 63.5v348q-28 0 -61.5 4t-86.5 15.5t-112 39t-112 67.5q-29 -17 -43 -25t-59 -30
t-81 -34.5t-90 -24t-106 -12.5z" />
    <glyph glyph-name="uniE604" unicode="&#xe604;" horiz-adv-x="1025" 
d="M1012.5 718.5q-11.5 11.5 -27 11.5t-27.5 -12l-573 -585l-319 325q-11 12 -27 12t-27 -12q-12 -11 -12 -27.5t12 -27.5l345 -353q12 -11 28 -11t27 11l601 612q11 12 11 28.5t-11.5 28z" />
    <glyph glyph-name="uniE605" unicode="&#xe605;" 
d="M736 192h-464q-7 0 -11.5 4.5t-4.5 11.5v16q0 69 39 128.5t104 90.5q-27 36 -27 89q0 58 41.5 100t99.5 42q59 0 100 -42t41 -100q0 -50 -34 -90q61 -30 96.5 -88.5t35.5 -129.5v-16q0 -7 -4.5 -11.5t-11.5 -4.5zM288 224h432q0 67 -36 121t-97 77q-8 3 -10 12t5 15
q40 34 40 83q0 45 -32 77.5t-77 32.5t-77 -32.5t-32 -77.5q0 -53 33 -83q6 -6 4.5 -15t-10.5 -12q-64 -23 -103.5 -78t-39.5 -120zM224 240h-80q-7 0 -11.5 4.5t-4.5 11.5q0 59 32.5 109.5t86.5 77.5q-22 31 -22 75q0 51 35.5 87.5t84.5 36.5q7 0 11.5 -4.5t4.5 -11.5
t-4.5 -11.5t-11.5 -4.5q-36 0 -62 -27t-26 -65q0 -45 27 -69q7 -6 5.5 -15t-10.5 -12q-49 -18 -81.5 -59t-36.5 -91h63q7 0 11.5 -4.5t4.5 -11.5t-4.5 -11.5t-11.5 -4.5zM864 240h-80q-7 0 -11.5 4.5t-4.5 11.5t4.5 11.5t11.5 4.5h63q-5 50 -37 91t-81 59q-8 3 -10 12t5 15
q27 24 27 69q0 38 -25.5 65t-62.5 27q-7 0 -11.5 4.5t-4.5 11.5t4.5 11.5t11.5 4.5q50 0 85 -36.5t35 -87.5q0 -44 -22 -75q54 -27 86.5 -77.5t32.5 -109.5q0 -6 -4.5 -11t-11.5 -5zM512 -95q-98 0 -187.5 38.5t-154 103t-103 154t-38.5 187.5t38.5 187.5t103 154t154 103
t187.5 38.5t187.5 -38.5t154 -103t103 -154t38.5 -187.5t-38.5 -187.5t-103 -154t-154 -103t-187.5 -38.5zM511.5 839q-91.5 0 -174.5 -36t-143.5 -96.5t-96.5 -143.5t-36 -175t36 -175t96.5 -143.5t143.5 -96.5t174.5 -36t175 36t144 96.5t96.5 143.5t36 175t-36 175
t-96.5 143.5t-144 96.5t-175 36z" />
    <glyph glyph-name="uniE606" unicode="&#xe606;" 
d="M871 -4h-658v362l273 268q4 5 10.5 10.5t21 12t29.5 6.5q31 0 60 -29l264 -269v-361zM255 38h574v302l-252 257q-16 16 -30 16q-8 0 -15 -3.5t-11 -7.5l-3 -3l-2 -2l-261 -257v-302zM981 390l-361 357q-3 3 -8 7t-22 11.5t-34.5 9t-43 -8t-50.5 -32.5l-359 -343v-5
q0 -4 2 -13t7.5 -12.5t16 -6.5t27.5 5l326 323q2 3 6 6.5t16.5 11t25.5 10.5t30.5 -1t33.5 -18l342 -337q2 -1 6 -2t12.5 -1.5t15 2t10 12t1.5 25.5zM376 732h-142v-216l147 141zM567 334h46v-37h-46v37zM567 407v-37h46v37h-46zM472 334h46v-37h-46v37zM472 407v-37h46v37
h-46zM567 334h46v-37h-46v37zM567 407v-37h46v37h-46zM472 334h46v-37h-46v37zM472 407v-37h46v37h-46z" />
    <glyph glyph-name="uniE607" unicode="&#xe607;" 
d="M512 -64q-91 0 -173.5 35.5t-142.5 95.5t-95 142.5t-35 173.5t35 173.5t95 142t142.5 95t173.5 35.5t173.5 -35.5t142.5 -95t95.5 -142t35.5 -173.5t-35.5 -173.5t-95.5 -142.5t-142.5 -95.5t-173.5 -35.5zM512 799q-113 0 -209 -55.5t-151.5 -151.5t-55.5 -209
t55.5 -209t151.5 -152t209 -56t209 56t152 152t56 209t-56 209t-152 151.5t-209 55.5zM762 127q-15 11 -37 23q-11 7 -13 8q-3 1 -15 7q-10 4 -16 7q-5 2 -16 5q-9 4 -19 7q-8 2 -15 4q-10 3 -22 6q-11 2 -16 3q-9 1 -25 3q-1 1 -6 1.5t-8 0.5q-22 2 -41 2q-16 0 -35 -2
q-2 0 -6.5 -0.5t-5.5 -0.5q-15 -2 -25 -4q-2 0 -14 -3q-13 -2 -23 -5q-6 -1 -14 -4q-11 -3 -22 -7q-9 -2 -14 -4q-9 -4 -21 -9q-11 -4 -13 -5q-8 -4 -21 -10q0 -1 -4 -3l-6 -3q-15 -8 -26 -16q-24 22 -43 49q26 23 60 42l1 1q1 0 2 1q16 8 35 16q0 1 7 3q22 9 42 14
q-43 34 -68 83t-25 105q0 99 70 168.5t168.5 69.5t168 -69.5t69.5 -168.5q0 -55 -23.5 -103t-64.5 -82q20 -5 42 -13q6 -3 7 -3q19 -8 35 -16q1 -1 2 -1l1 -1q33 -18 58 -41q-19 -29 -45 -55zM691 442q0 74 -52.5 126.5t-126.5 52.5t-126 -52.5t-52 -126.5t52 -126t126 -52
t126.5 52t52.5 126z" />
    <glyph glyph-name="uniE608" unicode="&#xe608;" 
d="M965 795l-42 42l-411 -411l-411 411l-42 -42l411 -411l-411 -411l42 -42l411 411l411 -411l42 42l-411 411z" />
    <glyph glyph-name="uniE609" unicode="&#xe609;" 
d="M731 895h-438q-73 0 -124.5 -51.5t-51.5 -124.5v-670q0 -73 51.5 -124.5t124.5 -51.5h438q73 0 124.5 51.5t51.5 124.5v670q0 73 -51.5 124.5t-124.5 51.5zM864 685v-548h-704v548h704zM293 852h438q53 0 91 -36t42 -88h-704q4 52 42 88t91 36zM731 -84h-438
q-55 0 -94 39t-39 94v46h704v-46q0 -55 -39 -94t-94 -39zM512 -3zM460 -2.5q0 21.5 15.5 36.5t36.5 15t36.5 -15t15.5 -36.5t-15.5 -36.5t-36.5 -15t-36.5 15t-15.5 36.5z" />
    <glyph glyph-name="uniE60A" unicode="&#xe60a;" 
d="M1022 721q-58 48 -117 73q-29 14 -68 21.5t-63 7.5l-25 1q-4 -1 -18.5 0t-48 -6t-63 -20.5t-58 -32t-42.5 -29.5l-14 -12q-67 51 -126 78q-26 12 -62.5 17.5t-59.5 4.5h-23q-81 -5 -134 -28q-51 -24 -100 -80v-721q74 64 118 82q43 17 113 17q83 -10 132 -30
q22 -9 57.5 -32.5t60 -42t24.5 -19.5q60 63 107 87q36 18 76 27t62 9.5t22 -0.5q49 -3 117 -28q27 -10 61 -28t53.5 -30.5t19.5 -13.5zM480 50q-5 4 -14.5 11t-38 24t-56.5 30t-66.5 23.5t-73.5 9.5q-78 -1 -119.5 -17.5t-68.5 -43.5l-1 603q2 3 6 8.5t19.5 19.5t35.5 25
t55.5 21t76.5 12q44 4 90 -8t77.5 -30t52 -34t23.5 -24q2 -15 2 -630zM975 73q-28 28 -87.5 52t-137.5 25q-34 1 -69 -9.5t-60.5 -25t-46 -30t-31.5 -25.5t-11 -11q-1 608 3 630q5 9 22 23.5t46 33t75.5 30t98.5 9.5q36 -2 70 -11t56.5 -21t40 -24t25.5 -20l8 -8
q-2 -583 -2 -618z" />
    <glyph glyph-name="uniE60B" unicode="&#xe60b;" 
d="M513 610q-52 0 -89 -37t-37 -89t37 -89t89 -37t89 37t37 89t-37 89t-89 37zM587 483.5q0 -30.5 -22 -52t-52.5 -21.5t-52.5 21.5t-22 52t22 52.5t52.5 22t52.5 -22t22 -52.5zM759 730q-102 102 -246.5 102t-246.5 -102t-102 -246q0 -126 162 -346q59 -80 118 -143
q55 -59 69 -59q13 0 68 59q59 63 118 143q162 221 162 346q0 144 -102 246zM809 484q0 -102 -145 -306q-44 -63 -90 -119t-62 -71q-13 12 -59.5 68t-93.5 122q-143 203 -143 306q0 122 87 209t209.5 87t209.5 -87t87 -209z" />
    <glyph glyph-name="uniE60C" unicode="&#xe60c;" 
d="M512 408q-13 0 -21.5 -8.5t-8.5 -21.5v-342q0 -13 8.5 -21.5t21.5 -8.5t21.5 8.5t8.5 21.5v342q0 13 -8.5 21.5t-21.5 8.5zM512 796q-205 0 -350.5 -145.5t-145.5 -350.5t145.5 -350.5t350.5 -145.5t350.5 145.5t145.5 350.5t-145.5 350.5t-350.5 145.5zM512 -134
q-180 0 -307 127t-127 307t127 307t307 127t307 -127t127 -307t-127 -307t-307 -127zM512 594q-13 0 -21.5 -8.5t-8.5 -21.5v-32q0 -13 8.5 -21.5t21.5 -8.5t21.5 8.5t8.5 21.5v32q0 13 -8.5 21.5t-21.5 8.5z" />
    <glyph glyph-name="uniE60D" unicode="&#xe60d;" 
d="M1024 384q0 139 -68.5 257t-186.5 186.5t-257 68.5t-257 -68.5t-186.5 -186.5t-68.5 -257t68.5 -257t186.5 -186.5t257 -68.5q179 0 319 111q8 7 9 17t-5.5 18.5t-16.5 9.5t-18 -6q-126 -100 -288 -100q-94 0 -179.5 36.5t-147.5 98.5t-98.5 147.5t-36.5 179.5
t36.5 179.5t98.5 147.5t147.5 98.5t179.5 36.5t179.5 -36.5t147.5 -98.5t98.5 -147.5t36.5 -179.5q0 -132 -70 -244q-5 -9 -2.5 -19t11 -15.5t18.5 -3t16 11.5q77 123 77 270v0zM499 153q0 -10 7.5 -17.5t18 -7.5t17.5 7.5t7 17.5v318q0 11 -7 18t-17.5 7t-18 -7t-7.5 -18
v-318v0zM499 578q0 -11 7.5 -18t18 -7t17.5 7t7 18v43q0 11 -7 18t-17.5 7t-18 -7t-7.5 -18v-43v0z" />
    <glyph glyph-name="uniE60E" unicode="&#xe60e;" 
d="M378 188q-65 0 -111 28q-51 32 -51 80q0 40 38 70q20 16 49 26q-25 32 -25 76q0 46 27 78q28 35 68.5 35t68.5 -35q26 -32 26 -78q0 -33 -14 -60q-4 -7 -9 -14q32 -9 54 -26q41 -30 41 -72q0 -48 -51 -80q-46 -28 -111 -28zM374 367l-28 -4q-42 -7 -68 -28
q-24 -18 -24 -39q0 -26 33 -46q37 -23 90.5 -23t91.5 23q32 20 32 46q0 24 -28 43t-71 24zM373 542q-22 0 -38 -20q-18 -22 -18 -54q0 -23 10 -42t26 -27l21 -11l21 12q16 9 25 27.5t9 40.5q0 32 -18 54q-16 20 -38 20zM817 715q43 0 73.5 -30.5t30.5 -73.5v-453
q0 -43 -30.5 -74t-73.5 -31h-610q-44 0 -74.5 31t-30.5 74v453q0 43 30.5 73.5t74.5 30.5h610zM817 754h-610q-60 0 -102 -42t-42 -101v-453q0 -60 42 -102t102 -42h610q59 0 101 42t42 102v453q0 59 -42 101t-101 42zM651 526h156v-39h-156v39zM651 404h95v-39h-95v39z
M651 282h95v-39h-95v39z" />
    <glyph glyph-name="uniE60F" unicode="&#xe60f;" 
d="M632 700q-57 -56 -160.5 -159.5t-136.5 -137.5q-7 -7 -7 -17.5t7 -17.5q49 -50 149.5 -150t150.5 -150q10 -11 23 -6.5t16.5 16.5t-5.5 24q-50 49 -150 149.5t-150 151.5v-35q98 99 297 298q10 11 5.5 24t-16.5 16t-23 -6z" />
    <glyph glyph-name="uniE610" unicode="&#xe610;" 
d="M293 743l363 -363l-358 -358q-15 -14 -15 -34.5t15 -35.5t35.5 -15t34.5 15l388 388q2 1 3 3l3 3q15 15 15 36t-15 36l-397 397q-15 15 -36 15t-36 -15t-15 -36t15 -36z" />
    <glyph glyph-name="uniE611" unicode="&#xe611;" horiz-adv-x="1066" 
d="M964 773h-168v61q0 13 -9 22t-21.5 9t-21.5 -9t-9 -22v-61h-396v61q0 13 -9 22t-22 9t-22 -9t-9 -22v-61h-163q-37 0 -64 -26.5t-27 -64.5v-668q0 -38 27 -64.5t64 -26.5h850q37 0 64 26.5t27 64.5v668q0 38 -27 64.5t-64 26.5zM999 14q0 -15 -10.5 -25t-24.5 -10h-850
q-14 0 -24.5 10t-10.5 25v668q0 15 10.5 25t24.5 10h163v-61q0 -12 9 -21.5t22 -9.5t22 9.5t9 21.5v61h396v-61q0 -12 9 -21.5t21.5 -9.5t21.5 9.5t9 21.5v61h168q14 0 24.5 -10t10.5 -25v-668v0zM205 517h139v-140h-139v140zM468 517h139v-140h-139v140zM727 517h140v-140
h-140v140zM208 255h140v-140h-140v140zM471 255h140v-140h-140v140zM730 255h140v-140h-140v140z" />
    <glyph glyph-name="uniE612" unicode="&#xe612;" 
d="M512 -18q-109 0 -201.5 54t-146.5 146.5t-54 201.5t54 201.5t146.5 146.5t201.5 54t201.5 -54t146.5 -146.5t54 -201.5t-54 -201.5t-146.5 -146.5t-201.5 -54zM512 750q-99 0 -183.5 -49t-133.5 -133.5t-49 -183.5t49 -183.5t133.5 -133.5t183.5 -49t183.5 49
t133.5 133.5t49 183.5t-49 183.5t-133.5 133.5t-183.5 49zM519 376q-46 -6 -87 -16q-32 -8 -55 -15q-20 0 -21 31q0 2 3 4q8 4 49 13q45 9 92 14q58 6 98 6q16 0 30 -4q13 -5 23 -15q9 -13 9 -28q0 -20 -22 -39t-61 -36q-19 -9 -31 -13q2 -13 6 -26v-2v-2q10 0 22 2
q105 5 144 7q6 0 27 4q6 0 24 -10q16 -11 16 -18q0 -15 -14 -16q-12 0 -19 3q-19 1 -20 1q-37 0 -176 -4q3 -31 3 -41q0 -98 -60 -98q-34 0 -49 14q-18 16 -18 32q0 15 12 15q5 0 9 -3q4 -2 6 -9q9 -22 31 -22q13 0 22 13q7 12 7 55q0 18 -3 42q-108 -5 -187 -15
q-7 -1 -18 -3t-13 -2q-13 -2 -25 -2q-9 0 -16 12t-7 20q0 4 5 5q55 5 171 13l84 4q-3 15 -9 39q-3 10 -3 15q0 10 3 16q4 5 13 6q5 0 14 -2q7 -3 9 -5q1 0 3 1t4.5 2t4.5 2q35 14 53 27q20 13 20 22q0 11 -24 11q-34 0 -79 -5zM725 523q18 -4 33 -18q14 -15 14 -34
q0 -32 -10 -60q-11 -28 -20 -37q-7 -6 -13 -6q-9 0 -20 9q-11 8 -11 18q0 3 2 4l5 5q23 35 23 68q0 19 -35 19q-168 0 -346 -34q-3 -1 -23 -6q-10 -3 -17 -3q6 -37 8 -51q5 -25 5 -29q0 -10 -12 -13q-15 0 -23 7q-6 7 -6 14l-1 8l-17 108q0 1 -1 3t-1 3v4q0 14 12 14
q7 0 21 -3q8 -2 11 -8q0 -3 -1 -11v-4q219 36 386 37q16 0 37 -4zM388 523q-9 -7 -17 -7q-4 0 -6 7t-17 25q-16 16 -25 23q-11 7 -19 11q-8 3 -8 10q0 10 7 17q5 8 18 8q19 -2 46 -35q26 -33 27 -46q0 -4 -6 -13zM535 540q-8 -7 -17 -7q-3 0 -5 8t-13 27q-3 4 -7.5 9.5
t-7 9.5t-4.5 6q-10 9 -16 12q-8 4 -8 11q0 10 6 17q6 8 17 8q17 -3 39 -37q21 -37 22 -51q0 -4 -6 -13zM716 637q10 -6 12 -17q0 -5 -4 -9l-4 -7q-19 -31 -45 -63q-11 -12 -15 -12q-9 0 -16 6q-6 4 -8 11q0 5 1 7q10 12 28 41q16 29 22 44q2 6 7 6q10 0 22 -7z" />
    <glyph glyph-name="uniE613" unicode="&#xe613;" 
d="M387 59v393q0 7 -5 12.5t-12.5 5.5t-13 -5.5t-5.5 -12.5v-393q0 -7 5.5 -12t13 -5t12.5 5t5 12zM530 59v393q0 7 -5.5 12.5t-12.5 5.5t-12.5 -5.5t-5.5 -12.5v-393q0 -7 5.5 -12t12.5 -5t12.5 5t5.5 12zM815.5 488q-7.5 0 -12.5 -5.5t-5 -12.5v-482q0 -15 -10.5 -25.5
t-25.5 -10.5h-500q-15 0 -25.5 10.5t-10.5 25.5v482q0 7 -5 12.5t-13 5.5q-13 0 -17 -14v1v-487q0 -30 20.5 -50.5t50.5 -20.5h500q29 0 50 20.5t21 50.5v482q0 7 -5 12.5t-12.5 5.5zM869 613h-206l-65 66q-6 5 -14 5h-1h-142h-1q-8 0 -14 -5l-65 -66h-206q-7 0 -12.5 -5.5
t-5.5 -13t5.5 -12.5t12.5 -5h214h1q8 0 14 6l66 65h124l66 -65q6 -6 14 -6h1h214q7 0 12.5 5t5.5 12.5t-5.5 13t-12.5 5.5zM673 59v393q0 7 -5.5 12.5t-13 5.5t-12.5 -5.5t-5 -12.5v-393q0 -7 5 -12t12.5 -5t13 5t5.5 12z" />
    <glyph glyph-name="uniE614" unicode="&#xe614;" 
d="M341 412h86v-85h-86v85zM341 583h86v-85h-86v85zM142 583h86v-85h-86v85zM142 754h86v-86h-86v86zM341 71h86v-85h-86v85zM341 242h86v-86h-86v86zM142 412h86v-85h-86v85zM341 754h86v-86h-86v86zM142 242h86v-86h-86v86zM825 412h85v-85h-85v85zM142 71h86v-85h-86v85z
M825 71h85v-85h-85v85zM825 242h85v-86h-85v86zM626 71h85v-85h-85v85zM971 555h-402v284v57h-53h-463h-43h-10v-1024h28h25h463h53h402h25h28v683h-10h-43zM516 -71h-463v910h463v-910zM971 -71h-402v569h402v-569zM626 242h85v-86h-85v86zM626 412h85v-85h-85v85z" />
    <glyph glyph-name="uniE615" unicode="&#xe615;" 
d="M910 586.5q0 26.5 -16.5 47t-42.5 26.5l-326 75q-8 2 -16.5 2t-16.5 -2l-326 -75q-26 -6 -42.5 -26.5t-16.5 -47t16.5 -47t42.5 -26.5l67 -16v-267q0 -54 67.5 -89.5t208 -35.5t208 35.5t67.5 89.5v267l67 16q26 6 42.5 26.5t16.5 47zM734 230q0 -11 -14.5 -23.5t-41 -24
t-71.5 -19.5t-98.5 -8t-98.5 8t-71.5 19.5t-41 24t-14.5 23.5v256l209 -48q8 -2 16.5 -2t16.5 2l209 48v-256zM514 487q-3 -1 -5.5 -1t-5.5 1l-326 75q-9 2 -14 8.5t-5 15.5t5 16t14 9l326 75h5h6l326 -75q9 -2 14.5 -9t5.5 -16t-5.5 -15.5t-14.5 -8.5zM834 461v-226
q0 -10 7.5 -17.5t18 -7.5t18 7.5t7.5 17.5v226q0 10 -7.5 17.5t-18 7.5t-18 -7.5t-7.5 -17.5zM860 185q-19 0 -35 -37.5t-16 -62.5q0 -21 15 -35.5t35.5 -14.5t35.5 14.5t15 35.5q0 25 -16 62.5t-34 37.5z" />
    <glyph glyph-name="uniE616" unicode="&#xe616;" 
d="M512 4q-49 0 -94 8l-222 -135v224q-89 62 -140 152.5t-51 192.5q0 91 40.5 173t108 141.5t161.5 95t197 35.5t197 -35.5t161.5 -95t108 -141.5t40.5 -172.5t-40.5 -172.5t-108 -141t-161.5 -94t-197 -35zM512 827q-121 0 -223 -51t-161.5 -138.5t-59.5 -191.5
q0 -94 51 -176t138 -134v-148l149 90q56 -12 107 -12q121 0 223.5 51t162 138.5t59.5 190.5q-1 104 -61 191.5t-162 138.5t-223 51zM734 478h-444q-13 0 -22.5 9.5t-9.5 22.5t9.5 22.5t22.5 9.5h444q13 0 22.5 -9.5t9.5 -22.5t-9.5 -22.5t-22.5 -9.5zM354 352h316
q13 0 22.5 -9.5t9.5 -22.5t-9.5 -22.5t-22.5 -9.5h-316q-13 0 -22.5 9.5t-9.5 22.5t9.5 22.5t22.5 9.5z" />
    <glyph glyph-name="uniE617" unicode="&#xe617;" 
d="M511 -72q-10 0 -16 6q-12 12 -10 47q-1 14 -9 23l-1 1h-1q-6 -3 -11 -20v-2l-1 -2q-9 -13 -22 -13q-16 0 -22 17q-13 25 20 69v1q12 14 23 41q6 15 10 23h-10q-14 0 -21 8q-10 11 -3 54q-1 8 -6 8h-5l-1 -1h-1q-3 0 -9 -4q-15 -9 -28 -9q-7 0 -14 2h-2q-7 0 -7 -2
q-6 -37 -26 -53l-3 -2l-3 -1h-3q-11 0 -26 20q-6 7 -8 10l-1 1l-1 2q-2 3 -3 3q-3 0 -5 -6q-9 -27 -32 -27q-6 0 -13 4h-2l-1 2q-6 4 -18 5l-18 2l7 16q4 12 3 19.5t-5 10.5q-25 18 -25 41q0 18 17 32q11 9 12 17t-6 16q-12 13 -20 13q-13 0 -33 -16q-8 -6 -18 -6
q-17 0 -25 14q-7 13 2 25q24 39 68 56q10 4 12 15v2q-29 18 -17 63q4 25 -10 34l-14 8l10 10q8 23 9 39q-5 42 -11 68l-1 4l1 4q17 49 38 77q29 42 72 42q15 0 30 -6q24 -10 33 -10h1q2 1 3 2q-2 3 -7 8q-24 18 -22 35q2 14 20 22q22 10 44 10q38 0 69 -26q31 -16 58 -18
q13 0 25.5 -5t20.5 -10.5t24 -17.5q4 -3 6 -5q14 -8 26 -8q26 0 51 42l24 -5q3 -29 10 -29q10 0 31 28l3 4l4 1q5 1 11 1q23 0 39 -22q20 -28 8 -62v-1l-1 -2l-1 -1q1 -5 19 -13l2 6l13 -11q50 -41 47 -103q-3 -55 -46 -84l-2 -1h-1q-11 -4 -15 -14q-6 -14 2 -32
q14 -13 22.5 -34t5.5 -39q-3 -12 2 -23t19 -30q18 -25 26 -41l4 -8l-6 -6q-8 -9 -12 -15q6 4 12 4q10 0 14 -9q8 -13 -5 -32q-24 -33 -14 -95l1 -6l-4 -5q-23 -25 -52 -25q-22 0 -47 17h-1q-5 3 -12 3q-14 0 -30 -11q23 -9 24 -33q1 -16 -9 -29.5t-28 -15.5l-8 -1l-4 7
q-23 39 -53 39q-7 0 -14 -1q-15 -3 -17 -8q-1 -1 1 -4v-1q7 -14 0 -38q-7 -23 -19 -30l-9 -6l-7 7q-9 9 -19 9q-9 0 -18 -10q-16 -14 -28 -14zM495 21q14 -16 15 -40v-1q0 -18 2 -26q4 2 9 6q17 17 36 17q13 0 25 -7q3 5 4 10q4 14 2 19q-7 15 -1 27q7 16 35 22q10 2 19 2
q40 0 69 -43q8 5 8 15q-1 14 -21 14h-5l-12 21q32 37 69 37q15 0 27 -8q19 -12 33.5 -12t28.5 12q-9 62 14 101q-1 -1 -3 -1q-15 0 -20 13q-7 16 15 42q-6 11 -20 30q-10 15 -15 23.5t-9 22t-2 27.5q2 11 -4.5 26.5t-16.5 23.5l-1 2l-2 2q-15 30 -4 56q8 20 29 28
q31 21 33 62q3 46 -32 78l-2 1q-38 13 -45 32q-4 11 2 22q7 21 -5 38q-8 12 -18 12q-28 -35 -49 -35q-16 0 -26 16q-1 3 -3 7q-26 -31 -56 -31q-20 0 -40 13h-1l-1 1q-2 2 -6 5q-14 11 -20.5 15.5t-15.5 8t-18 3.5h-1q-33 3 -70 22h-2l-1 2q-24 21 -53 21q-17 0 -33 -8
q-3 -1 -5 -3q3 -4 12 -11q18 -16 17 -30q-1 -12 -15 -21q-6 -5 -15 -5q-14 0 -43 12q-10 4 -20 4q-30 0 -51 -30q-18 -26 -33 -68q6 -28 10 -69v-1q0 -20 -8 -43q19 -18 13 -54v-1q-8 -28 7 -36l2 -1l1 -1q10 -10 7 -26q-2 -10 -10 -20t-18 -14q-36 -13 -56 -45q1 -1 2 -1
t1 1h1q27 22 49 22q20 0 39 -22l1 -1q27 -39 -10 -69q-8 -6 -8 -12q0 -10 15 -20q21 -15 15 -46q9 -3 15 -8h3q4 0 7 9v1q8 23 29 23q16 0 25 -16q3 -3 8 -10q3 -4 5 -6q7 11 10 30l1 1q4 23 32 23q2 0 5 -1h1h1q5 -1 9 -1q6 0 14 5q11 6 19 7q5 2 11 2q13 0 21.5 -9
t9.5 -24l1 -1l-1 -2q-4 -29 -3 -35h2q3 0 6 1q8 2 13 2q12 0 17 -8q6 -9 -1 -27l-1 -1q-4 -9 -10 -24q-12 -32 -27 -48q-22 -31 -18 -42q12 34 35 34q13 0 20 -10zM512 503q-19 0 -33 -13.5t-14 -33t14 -33t33 -13.5t32.5 13.5t13.5 33t-13.5 33t-32.5 13.5zM590 490
q-7 15 -18.5 26.5t-26.5 17.5q-16 7 -33 7t-33 -7q-15 -6 -26.5 -17.5t-18.5 -26.5q-6 -16 -6 -33t6 -33q7 -15 18.5 -26.5t26.5 -18.5q16 -6 33 -6t33 6q15 7 26.5 18.5t18.5 26.5q6 16 6 33t-6 33zM583 457q0 -29 -21 -50t-50 -21t-50 21t-21 50t21 49.5t50 20.5t50 -20.5
t21 -49.5z" />
    <glyph glyph-name="uniE618" unicode="&#xe618;" 
d="M513 840q61 0 108 -40.5t57 -100.5l4 -26l26 -2q50 -4 78.5 -48t27.5 -118v-201l31 -2q37 -4 37 -34v-202l1 -4q0 -8 -10.5 -16.5t-31.5 -12.5l-28 -5l3 -30q1 -28 -19 -48q-24 -25 -82 -25h-409q-16 0 -30.5 2.5t-30 10t-25 24t-9.5 40.5v29l-29 3q-5 0 -13.5 2
t-17.5 10t-9 21v197q0 18 9 29q10 10 29 10h32v205q-1 5 -1.5 17t3.5 36t14 45.5t34.5 41.5t60.5 28l21 4l4 22q11 60 57 99t108 39zM389 684h245l-10 32q-11 38 -42 61.5t-70 23.5t-70.5 -23.5t-42.5 -61.5zM317 135h271q0 -26 19 -44.5t45.5 -18.5t46 19t19.5 46
q22 4 37 22t15 41q0 27 -19 46t-46 19h-388q-27 0 -46 -19t-19 -45.5t19 -46t46 -19.5zM513 873q-73 0 -128.5 -47t-68.5 -118q-45 -10 -75 -35t-42 -53t-17 -54.5t-4 -43.5v-18v-168q-21 0 -35.5 -7.5t-21 -18t-9.5 -21t-3.5 -18t0.5 -7.5v-195q0 -17 7 -30t17 -19.5
t21 -10.5t17 -5t7 -1q0 -29 11 -51t26 -33t34.5 -17.5t31.5 -7.5t24 -1h409q39 0 67.5 11t40.5 27t18 32t6 28v11q21 4 36 12.5t20.5 17t9 17.5t2 13.5t0.5 5.5v201q0 17 -7 30.5t-17 20t-20 10.5t-17 5l-7 1v171q0 94 -39.5 143.5t-97.5 54.5q-11 71 -66.5 119.5
t-129.5 48.5v0zM422 708q9 29 34 48t56 19q32 0 56.5 -19t32.5 -48h-179zM317 168q-13 0 -22.5 9.5t-9.5 22.5t9.5 22.5t22.5 9.5h388q13 0 22.5 -9.5t9.5 -22.5t-9.5 -22.5t-22.5 -9.5h-21v-31q0 -13 -9.5 -22.5t-22 -9.5t-22 9.5t-9.5 22.5v31h-304zM317 168z" />
    <glyph glyph-name="uniE619" unicode="&#xe619;" 
d="M310 193q0 -14 9.5 -24t23.5 -10h338q14 0 23.5 10t9.5 24t-9.5 24t-23.5 10h-338q-14 0 -23.5 -10t-9.5 -24zM310 328q0 -14 9.5 -24t23.5 -10h338q14 0 23.5 10t9.5 24t-9.5 24t-23.5 10h-338q-14 0 -23.5 -10t-9.5 -24zM467 678q0 18 13 30.5t32 12.5t32 -12.5
t13 -30.5v-116q0 -18 -13 -30.5t-32 -12.5t-32 12.5t-13 30.5v116zM400 697v-66v-65v-2q0 -47 33 -80t79 -33t79 33t33 80v2v65v66q0 47 -32.5 80.5t-79.5 33.5t-79.5 -33.5t-32.5 -80.5zM206 564h194v2v65h-248q-37 0 -63.5 -26t-26.5 -64v-494q0 -37 26.5 -63.5
t63.5 -26.5h720q37 0 63.5 26.5t26.5 63.5v494q0 38 -26.5 64t-63.5 26h-248v-65v-2h194q31 0 53.5 -22.5t22.5 -54.5v-386q0 -32 -22.5 -54.5t-53.5 -22.5h-612q-31 0 -53.5 22.5t-22.5 54.5v386q0 32 22.5 54.5t53.5 22.5z" />
    <glyph glyph-name="uniE61A" unicode="&#xe61a;" 
d="M172 689q5 -2 12.5 4t7.5 11v-512q0 -7 6.5 -17.5t13.5 -12.5l331 -142q-2 1 -7 0l8 1l8 -1q-5 1 -7 0l331 142q7 2 13.5 12.5t6.5 17.5v512q0 -5 7.5 -11t12.5 -4l-354 -101l-18 -5l-18 5zM189 750l355 -101l355 101q25 8 43 -5.5t18 -40.5v-512q0 -26 -17 -52.5
t-42 -36.5l-330 -142q-14 -6 -27 -4q-13 -2 -27 4l-330 142q-25 10 -42 36.5t-17 52.5v512q0 27 18 40.5t43 5.5zM352 320l-75 -40l14 84l-61 60l84 12l38 76l38 -76l84 -12l-61 -60l14 -84zM650 417l191 65q13 4 19 16t1.5 24.5t-16.5 18.5t-24 1l-191 -64q-13 -4 -19 -16
t-1.5 -24.5t16.5 -18.5t24 -2zM650 289l191 65q13 4 19 16t1.5 24.5t-16.5 18.5t-24 1l-191 -64q-13 -4 -19 -16t-1.5 -24.5t16.5 -18.5t24 -2zM650 161l191 65q13 4 19 16t1.5 24.5t-16.5 18.5t-24 1l-191 -64q-13 -4 -19 -16t-1.5 -24.5t16.5 -18.5t24 -2z" />
    <glyph glyph-name="uniE61B" unicode="&#xe61b;" 
d="M937 30h-63v551q0 17 -17 28q-13 8 -31 8h-169v132q0 18 -16 31q-14 11 -33 11h-417q-19 0 -33 -11q-16 -13 -16 -31v-716v-1v-2h-58q-8 0 -14.5 -8.5t-6.5 -17.5t6.5 -18t14.5 -9h853q8 0 14.5 8t6.5 17.5t-6.5 18.5t-14.5 9zM818 574q9 0 13 -4v-541l-171 1v3l-2 541
h160zM187 33l-2 676q0 3 0.5 6t2.5 9.5t6 12t12 9.5t20 4h366q6 0 13 -2.5t7 -3.5v-711q0 -1 -2 -3h-421q-2 1 -2 3zM187 33zM527 671h-255q-7 0 -12 -5.5t-5 -13.5t5 -13.5t12 -5.5h255q8 0 13 5.5t5 13.5t-5 13.5t-13 5.5zM527 671zM527 531h-255q-7 0 -12 -5.5t-5 -13.5
t5 -13.5t12 -5.5h255q8 0 13 5.5t5 13.5t-5 13.5t-13 5.5zM527 528zM527 379h-255q-7 0 -12 -5.5t-5 -13.5t5 -13.5t12 -5.5h255q8 0 13 5.5t5 13.5t-5 13.5t-13 5.5zM527 379zM527 229h-255q-7 0 -12 -5.5t-5 -13.5t5 -13.5t12 -5.5h255q8 0 13 5.5t5 13.5t-5 13.5t-13 5.5
zM527 229z" />
    <glyph glyph-name="uniE61C" unicode="&#xe61c;" 
d="M870 713q-56 0 -112 12.5t-92.5 28t-71.5 35.5t-45 28t-17 13q-9 8 -21 7t-19 -11q-33 -40 -101 -67t-127 -35.5t-111 -8.5q-13 -2 -20 -9q-8 -8 -8 -20v-324q0 -52 36.5 -125t91.5 -139t126.5 -112.5t134.5 -46.5q52 0 109.5 31t105 79.5t86.5 103.5t61 108.5t22 90.5
v333q0 11 -8.5 19.5t-19.5 8.5zM841 352q0 -37 -31 -97.5t-77.5 -118t-107 -99t-111.5 -41.5q-50 0 -110.5 41.5t-108.5 99t-81 120.5t-33 105v297q35 1 71 6t86.5 16t98 34.5t80.5 55.5q32 -23 69.5 -44t109.5 -43.5t145 -26.5v-305zM384 561q-5 11 -16 15t-22 -1
t-14.5 -16.5t1.5 -21.5l153 -318q7 -16 25 -16t26 15l158 319q5 10 1.5 21t-14 16.5t-22 1.5t-16.5 -14l-132 -267z" />
    <glyph glyph-name="uniE61D" unicode="&#xe61d;" 
d="M672 257h-32v32q0 13 -9.5 22.5t-22.5 9.5t-22.5 -9.5t-9.5 -22.5v-32h-32q-13 0 -22.5 -9.5t-9.5 -22.5t9.5 -22.5t22.5 -9.5h32v-32q0 -13 9.5 -22.5t22.5 -9.5t22.5 9.5t9.5 22.5v32h32q13 0 22.5 9.5t9.5 22.5t-9.5 22.5t-22.5 9.5zM480 832q-98 0 -186.5 -38
t-153 -102.5t-102.5 -153t-38 -186.5t38 -186.5t102.5 -153t153 -102.5t186.5 -38t186.5 38t153 102.5t102.5 153t38 186.5t-38 186.5t-102.5 153t-153 102.5t-186.5 38zM480 -64q-113 0 -209 55.5t-151.5 151.5t-55.5 209q0 172 122 294t294 122t294 -122t122 -294
q0 -113 -55.5 -209t-151.5 -151.5t-209 -55.5zM663 352q-35 49 -88 74q33 37 33 86q0 53 -37.5 90.5t-90.5 37.5t-90.5 -37.5t-37.5 -90.5q0 -49 33 -86q-58 -27 -93.5 -81.5t-35.5 -120.5q0 -49 22 -96h75q-33 43 -33 96q0 66 47 113t113 47q52 0 95 -32h88zM480 448
q-26 0 -45 19t-19 45t19 45t45 19q27 0 45.5 -19t18.5 -45t-19 -45t-45 -19z" />
    <glyph glyph-name="uniE61E" unicode="&#xe61e;" 
d="M691 230q-119 0 -211 76l-180 -180l97 -98l-45 -45l-98 97l-208 -208l-46 46l434 434q-76 92 -76 211q0 91 44.5 167.5t121.5 121t167.5 44.5t167 -44.5t121 -121t44.5 -167t-44.5 -167.5t-121 -121.5t-167.5 -44.5zM691.5 847q-117.5 0 -200.5 -83t-83 -200.5t83 -200.5
t200.5 -83t200.5 83t83 200.5t-83 200.5t-200.5 83z" />
    <glyph glyph-name="uniE61F" unicode="&#xe61f;" 
d="M512 -13q-108 0 -199 53.5t-144.5 144.5t-53.5 199t53.5 199t144.5 144.5t199 53.5t199 -53.5t144.5 -144.5t53.5 -199t-53.5 -199t-144.5 -144.5t-199 -53.5zM512 755q-101 0 -186.5 -49.5t-135 -135t-49.5 -186.5t49.5 -186.5t135 -135t186.5 -49.5t186.5 49.5t135 135
t49.5 186.5t-49.5 186.5t-135 135t-186.5 49.5zM479 154h70v73h-70v-73zM497 280h34l18 333h-70z" />
    <glyph glyph-name="uniE620" unicode="&#xe620;" 
d="M139 -65q1 -1 4 -1q-3 1 -5 1h1zM139 -65zM573 218q0 -7 5 -12t12 -5h291q7 0 12 5t5 12t-5 12t-12 5h-291q-7 0 -12 -5t-5 -12zM573 218zM881 104h-291q-7 0 -12 -5t-5 -12t5 -12t12 -5h291q7 0 12 5t5 12t-5 12t-12 5zM881 104zM881 -28h-291q-7 0 -12 -5t-5 -12t5 -12
t12 -5h291q7 0 12 5t5 12t-5 12t-12 5zM881 -28zM762 568q0 110 -78 188t-188 78t-188 -78t-78 -188q0 -88 52 -157.5t134 -95.5q-108 -44 -183.5 -133.5t-101.5 -204.5q-2 -13 -5 -30q3 -8 12 -12q2 0 5 -1q10 -1 18 6q2 9 4 21q24 118 104.5 207.5t194.5 125.5q1 1 2 1
l2 1q9 2 26 5q21 1 46 6q95 15 158.5 89t63.5 172zM496 337q-96 0 -163.5 68t-67.5 163.5t67.5 163.5t163.5 68t164 -68t68 -163.5t-68 -163.5t-164 -68zM496 337z" />
    <glyph glyph-name="uniE621" unicode="&#xe621;" horiz-adv-x="1087" 
d="M544 333l-14 45q-5 18 -36.5 52.5t-74.5 62.5q-10 6 -31 19q-25 15 -39 24t-36 27.5t-34 35t-21 41.5t-9 53q1 75 37 125q35 46 88 57t101 -17q41 -24 67 -70q26 45 67 68q49 28 103 17q53 -11 87 -56q36 -49 37 -122q0 -63 -44 -111q-25 -26 -88 -65q-27 -17 -38 -25
q-41 -29 -74 -64.5t-37 -50.5zM403 852q-12 0 -24 -2q-47 -10 -75.5 -52.5t-28.5 -104.5q0 -24 7.5 -45t17.5 -35.5t30 -30.5t33 -24.5t38 -23.5q24 -14 32 -19q35 -22 64.5 -51t45.5 -54q16 24 46 53.5t62 52.5q12 8 40 25q29 18 44.5 29t36 30.5t29.5 42.5t9 52
q0 67 -30.5 105.5t-73 47t-85.5 -14.5t-67 -79l-12 -27l-11 27q-20 46 -54.5 72t-73.5 26zM246 -120q-18 0 -34 16q-9 9 -114 107q-6 5 -12.5 11.5t-10.5 9.5t-5 5q-22 21 -21 41q1 14 14 23q21 14 64 49q12 9 27 9.5t31 -12.5q2 -1 65 -57l91 -82q16 -14 14 -30
q-1 -17 -19 -30q-16 -12 -54 -44q-1 0 -6 -5q-13 -11 -30 -11zM154 126q-6 0 -11 -5q-43 -34 -65 -49q-3 -2 -3 -4q-1 -8 13 -21q8 -7 27 -25q106 -98 115 -107q15 -16 29 -4l6 5q40 34 56 45q8 6 9 10q0 5 -6 10q-10 9 -91 81q-62 55 -65 58q-7 6 -14 6zM370 -16l-168 150
l-8 27l6 5q8 8 22.5 19.5t45 34t65 38.5t61.5 18q57 4 287 -9q56 -3 65 -3q25 -1 39 -12.5t14 -26.5q1 -13 -9.5 -23.5t-31.5 -13.5q-24 -3 -114 -9q-83 -6 -91 -7q-5 -2 -6 -6q6 -7 38 -10q153 -15 195 -9q21 2 113 72q37 28 49 35q22 13 48 15q35 2 51 -23
q8 -11 -3.5 -28.5t-24.5 -28.5l-2 -1q-199 -166 -264 -176q-35 -5 -168 2q-95 5 -108 2q-14 -3 -31.5 -10t-26.5 -12t-11 -6l-3 -1zM225 148l154 -137l13 1q41 23 73 30q17 3 115 -2q130 -7 163 -2q58 8 251 169l2 2q16 13 22 26q-13 9 -31 7t-32 -11q-8 -5 -46 -33
q-98 -74 -126 -77q-46 -6 -200 9q-60 5 -62 33q-1 12 7.5 21.5t17.5 11.5q8 3 97 9q90 6 113 9q18 2 18 10q0 5 -8 9.5t-21 4.5q-10 0 -65 3q-228 13 -284 9q-65 -4 -172 -98z" />
    <glyph glyph-name="uniE622" unicode="&#xe622;" 
d="M336 334q79 11 132.5 71.5t53.5 142.5q0 89 -63 152.5t-152.5 63.5t-153 -63.5t-63.5 -152.5q0 -82 53.5 -142.5t132.5 -71.5v-104h-140v-60h140v-140h60v140h140v60h-140v104zM150 548q0 64 45.5 110t110.5 46t110.5 -46t45.5 -110.5t-45.5 -110.5t-110.5 -46t-110.5 46
t-45.5 111zM502 218q0 -89 63 -152.5t152.5 -63.5t153 63.5t63.5 152.5q0 82 -53.5 142.5t-132.5 71.5l-1 219l58 -57l42 43l-129 129l-130 -130l43 -42l57 57v-219q-80 -11 -133 -71.5t-53 -142.5zM874 218q0 -64 -45.5 -110t-110.5 -46t-110.5 45.5t-45.5 110.5
t45.5 110.5t110 46t110.5 -45.5t46 -111z" />
    <glyph glyph-name="uniE623" unicode="&#xe623;" 
d="M511 335q-79 0 -134.5 55.5t-55.5 134t55.5 134.5t134.5 56t134.5 -56t55.5 -134.5t-55.5 -134t-134.5 -55.5zM511 689q-68 0 -116.5 -48t-48.5 -116t48.5 -116.5t116.5 -48.5t116.5 48.5t48.5 116.5t-48.5 116t-116.5 48zM828 81h-634v13q0 88 45.5 163.5t123.5 116.5
l8 4l6 -5q58 -51 134 -51q77 0 134 51l6 5l8 -4q78 -41 123.5 -116.5t45.5 -163.5v-13v0zM220 107h582q-3 75 -42 139t-105 102q-63 -51 -144 -51t-143 51q-66 -38 -105.5 -102t-42.5 -139zM1013 374v27v1v324q0 65 -46.5 111t-111.5 46h-686q-65 0 -111.5 -46t-46.5 -111
v-322v-3v-27v-15v-320h1q0 -65 46 -111t111 -46h686q65 0 111.5 46t46.5 111v335zM855 -93h-686q-55 0 -94 39t-39 93v320v15v27v3v322q0 55 39 93.5t94 38.5h686q55 0 94 -38.5t39 -93.5v-324v-1v-38v-324q0 -54 -39 -93t-94 -39z" />
    <glyph glyph-name="uniE625" unicode="&#xe625;" 
d="M895 -2v770l-766 -770h766z" />
    <glyph glyph-name="uniE626" unicode="&#xe626;" 
d="M495 651h35v-702h-35v702z" />
    <glyph glyph-name="uniE627" unicode="&#xe627;" 
d="M821 742h-84v37q0 12 -8 20t-20 8q-11 0 -19.5 -8t-8.5 -20v-37h-306v37q0 12 -8.5 20t-19.5 8q-12 0 -20 -8t-8 -20v-37h-112q-34 0 -58.5 -24.5t-24.5 -59.5v-613q0 -35 24.5 -59.5t58.5 -24.5h614q34 0 58.5 24.5t24.5 59.5v613q0 34 -24.5 59t-58.5 25zM849 45
q0 -12 -8.5 -20t-19.5 -8h-614q-11 0 -19 8t-8 20v613q0 11 8 19.5t19 8.5h112v-8q0 -12 8 -20t20 -8q11 0 19.5 8t8.5 20v8h306v-8q0 -12 8.5 -20t19.5 -8q12 0 20 8t8 20v8h84q11 0 19.5 -8.5t8.5 -19.5v-613zM737 546h-446q-11 0 -19.5 -8t-8.5 -19q0 -12 8.5 -20
t19.5 -8h446q12 0 20 8t8 20q0 11 -8 19t-20 8zM737 379h-446q-11 0 -19.5 -8t-8.5 -20q0 -11 8.5 -19.5t19.5 -8.5h446q12 0 20 8.5t8 19.5q0 12 -8 20t-20 8zM514 212h-223q-11 0 -19.5 -8t-8.5 -19.5t8.5 -20t19.5 -8.5h223q12 0 20 8.5t8 20t-8 19.5t-20 8z" />
    <glyph glyph-name="uniE629" unicode="&#xe629;" 
d="M0 424l45 44l333 -333l601 601l45 -45l-646 -645z" />
    <glyph glyph-name="uniE62A" unicode="&#xe62a;" 
d="M464 142q0 20 14 34t34 14t34 -14t14 -34t-14 -34t-34 -14t-34 14t-14 34zM512 -65q-91 0 -174.5 36t-143.5 96t-96 143.5t-36 174.5t36 174.5t96 143.5t143.5 96t174.5 36t174.5 -36t143.5 -96t96 -143.5t36 -174.5t-36 -174.5t-96 -143.5t-143.5 -96t-174.5 -36z
M512 770q-104 0 -193 -51.5t-140.5 -140.5t-51.5 -193t51.5 -193t140.5 -140.5t193 -51.5t193 51.5t140.5 140.5t51.5 193t-51.5 193t-140.5 140.5t-193 51.5zM512 223q-13 0 -22.5 9.5t-9.5 22.5v54q0 25 13 50t25.5 39.5t36.5 38.5q18 18 26.5 27.5t17.5 23.5t9 23
q0 41 -28 69.5t-68 28.5q-41 0 -68.5 -27.5t-27.5 -67.5q0 -14 -9.5 -23t-23 -9t-23 9t-9.5 23q0 65 47.5 112t113.5 47t113.5 -47.5t47.5 -114.5q0 -22 -12.5 -45.5t-24 -37t-35.5 -36.5q-19 -19 -28.5 -29.5t-19 -26t-9.5 -27.5v-54q0 -13 -9.5 -22.5t-22.5 -9.5zM512 223
z" />
  </font>
</defs>
</svg>
